<svg aria-hidden="true" style="position: absolute; width: 0; height: 0; overflow: hidden;" version="1.1" xmlns="http://www.w3.org/2000/svg" xmlns:xlink="http://www.w3.org/1999/xlink">
<defs>
<symbol id="icon-tick" viewBox="0 0 34 32">
<path fill="none" stroke="#fff" style="stroke: var(--color1, #fff)" stroke-linejoin="round" stroke-linecap="round" stroke-miterlimit="4" stroke-width="2" d="M26.427 6.601c5.293 5.293 5.2 13.933-0.267 19.12-5.053 4.787-13.253 4.787-18.32 0-5.48-5.187-5.573-13.827-0.267-19.12 5.2-5.213 13.653-5.213 18.853 0z"></path>
<path fill="none" stroke="#fff" style="stroke: var(--color1, #fff)" stroke-linejoin="round" stroke-linecap="round" stroke-miterlimit="4" stroke-width="2" d="M11.333 16l3.773 3.773 7.56-7.547"></path>
</symbol>
<symbol id="icon-Vector-1" viewBox="0 0 34 32">
<path fill="#fff" style="fill: var(--color1, #fff)" d="M6.4 1.919c0-0.255 0.101-0.499 0.281-0.679s0.424-0.281 0.679-0.281h5.76c0.255 0 0.499 0.101 0.679 0.281s0.281 0.424 0.281 0.679v5.76c0 0.255-0.101 0.499-0.281 0.679s-0.424 0.281-0.679 0.281h-5.76c-0.255 0-0.499-0.101-0.679-0.281s-0.281-0.424-0.281-0.679v-5.76zM18.88 0.959c-0.255 0-0.499 0.101-0.679 0.281s-0.281 0.424-0.281 0.679v5.76c0 0.255 0.101 0.499 0.281 0.679s0.424 0.281 0.679 0.281h5.76c0.255 0 0.499-0.101 0.679-0.281s0.281-0.424 0.281-0.679v-5.76c0-0.255-0.101-0.499-0.281-0.679s-0.424-0.281-0.679-0.281h-5.76zM19.84 6.719v-3.84h3.84v3.84h-3.84zM8.32 10.559c-2.037 0-3.99 0.809-5.431 2.249s-2.249 3.394-2.249 5.431c0 2.037 0.809 3.99 2.249 5.431s3.394 2.249 5.431 2.249h6.157c-0.265-0.937-0.398-1.906-0.397-2.88 0-1.202 0.202-2.358 0.57-3.435-0.299-0.295-0.493-0.679-0.552-1.095s0.019-0.839 0.223-1.206c0.204-0.367 0.523-0.656 0.907-0.825s0.813-0.206 1.221-0.108c0.99-1.217 2.238-2.198 3.655-2.872s2.967-1.022 4.535-1.020c1.987 0 3.846 0.549 5.434 1.503-0.701-1.053-1.652-1.917-2.767-2.514s-2.361-0.91-3.626-0.909h-15.36zM8.32 20.159c-0.509 0-0.998-0.202-1.358-0.562s-0.562-0.848-0.562-1.358c0-0.509 0.202-0.998 0.562-1.358s0.848-0.562 1.358-0.562 0.998 0.202 1.358 0.562c0.36 0.36 0.562 0.848 0.562 1.358s-0.202 0.998-0.562 1.358c-0.36 0.36-0.848 0.562-1.358 0.562zM33.28 23.039c0 2.292-0.91 4.489-2.531 6.109s-3.818 2.531-6.109 2.531c-2.292 0-4.489-0.91-6.109-2.531s-2.531-3.818-2.531-6.109c0-2.292 0.91-4.489 2.531-6.109s3.818-2.531 6.109-2.531 4.489 0.91 6.109 2.531c1.62 1.62 2.531 3.818 2.531 6.109zM27.8 19.48l-5.080 5.082-1.24-1.242c-0.18-0.18-0.425-0.281-0.68-0.281s-0.499 0.101-0.68 0.281c-0.18 0.18-0.282 0.425-0.282 0.68s0.101 0.499 0.282 0.68l1.92 1.92c0.089 0.089 0.195 0.16 0.312 0.209s0.242 0.073 0.368 0.073 0.251-0.025 0.368-0.073c0.116-0.048 0.223-0.119 0.312-0.209l5.76-5.76c0.18-0.18 0.282-0.425 0.282-0.68s-0.101-0.499-0.282-0.68c-0.18-0.18-0.425-0.281-0.68-0.281s-0.499 0.101-0.68 0.281z"></path>
</symbol>
<symbol id="icon-Tech" viewBox="0 0 36 32">
<path fill="none" stroke="#fff" style="stroke: var(--color1, #fff)" stroke-linejoin="round" stroke-linecap="round" stroke-miterlimit="4" stroke-width="3.5556" d="M8.889 8.889l-7.111 7.111 7.111 7.111M26.667 8.889l7.111 7.111-7.111 7.111M21.333 1.778l-7.111 28.444"></path>
</symbol>
<symbol id="icon-Finance" viewBox="0 0 30 32">
<path fill="#fff" style="fill: var(--color1, #fff)" d="M8 15.6v-6.8c0-0.667 0.234-1.233 0.701-1.699s1.034-0.7 1.699-0.701c0.666-0.001 1.233 0.233 1.701 0.701s0.701 1.035 0.699 1.699v6.8c0 0.667-0.233 1.234-0.699 1.701s-1.033 0.7-1.701 0.699c-0.668-0.001-1.234-0.234-1.699-0.699s-0.699-1.032-0.701-1.701zM16 15.24v-12.84c0-0.667 0.234-1.233 0.701-1.699s1.034-0.7 1.699-0.701c0.666-0.001 1.232 0.233 1.701 0.701s0.701 1.035 0.699 1.699v12.84c0 0.8-0.246 1.4-0.739 1.8s-1.046 0.6-1.661 0.6c-0.614 0-1.168-0.2-1.659-0.6s-0.739-1-0.741-1.8zM0 20.76v-5.56c0-0.667 0.234-1.233 0.701-1.699s1.034-0.7 1.699-0.701c0.666-0.001 1.233 0.233 1.701 0.701s0.701 1.035 0.699 1.699v5.56c0 0.8-0.246 1.4-0.739 1.8s-1.046 0.6-1.661 0.6c-0.614 0-1.167-0.2-1.659-0.6s-0.739-1-0.741-1.8zM3.84 30.48c-0.693 0-1.18-0.326-1.461-0.979s-0.167-1.233 0.341-1.741l6.56-6.56c0.293-0.293 0.647-0.453 1.061-0.48s0.78 0.107 1.099 0.4l4.56 3.92 8.96-8.96h-0.96c-0.453 0-0.833-0.154-1.139-0.461s-0.46-0.687-0.461-1.139c-0.001-0.452 0.152-0.832 0.461-1.139s0.688-0.461 1.139-0.461h4.8c0.453 0 0.834 0.154 1.141 0.461s0.46 0.687 0.459 1.139v4.8c0 0.453-0.154 0.834-0.461 1.141s-0.687 0.46-1.139 0.459c-0.452-0.001-0.832-0.155-1.139-0.461s-0.461-0.686-0.461-1.139v-0.96l-10 10c-0.293 0.293-0.647 0.453-1.061 0.48s-0.78-0.107-1.099-0.4l-4.56-3.92-5.52 5.52c-0.133 0.133-0.3 0.247-0.499 0.341s-0.406 0.14-0.621 0.139z"></path>
</symbol>
<symbol id="icon-Education" viewBox="0 0 38 32">
<path fill="#fff" style="fill: var(--color1, #fff)" d="M19.2 16.001l-14.323-5.722 0.883 21.082h-3.84l0.922-21.907-2.842-1.133 19.2-7.68 19.2 7.68-19.2 7.68zM19.2 6.401c-1.056 0-1.92 0.422-1.92 0.96s0.864 0.96 1.92 0.96c1.056 0 1.92-0.422 1.92-0.96s-0.864-0.96-1.92-0.96zM19.2 17.921l10.694-4.282c1.363 1.805 2.304 3.974 2.611 6.336-0.576-0.077-1.171-0.134-1.786-0.134-4.896 0-9.178 2.63-11.52 6.547-1.19-1.995-2.876-3.647-4.896-4.794s-4.302-1.752-6.624-1.753c-0.614 0-1.21 0.058-1.786 0.134 0.307-2.362 1.248-4.531 2.611-6.336l10.694 4.282z"></path>
</symbol>
<symbol id="icon-Analytics" viewBox="0 0 32 32">
<path fill="#fff" style="fill: var(--color1, #fff)" d="M15 3.66c0-0.155-0.133-0.277-0.288-0.261-3.12 0.319-6.011 1.784-8.113 4.112s-3.266 5.353-3.266 8.489c0 2.509 0.745 4.962 2.141 7.047s3.38 3.709 5.7 4.664c2.32 0.956 4.872 1.201 7.332 0.705s4.717-1.713 6.484-3.494c0.026-0.026 0.046-0.057 0.059-0.092s0.019-0.071 0.016-0.108c-0.002-0.037-0.012-0.073-0.029-0.105s-0.040-0.061-0.069-0.084l-9.596-7.756c-0.116-0.094-0.21-0.212-0.274-0.347s-0.098-0.282-0.098-0.431v-12.34z"></path>
<path fill="#fff" style="fill: var(--color1, #fff)" d="M26.227 22.978c0.12 0.097 0.299 0.072 0.384-0.059 1.106-1.691 1.789-3.623 1.992-5.633 0.003-0.036-0.001-0.073-0.013-0.108s-0.031-0.067-0.055-0.094c-0.025-0.027-0.055-0.049-0.088-0.063s-0.070-0.022-0.106-0.022h-8.757c-0.055 0-0.109 0.017-0.153 0.049s-0.079 0.077-0.097 0.129-0.020 0.108-0.005 0.161c0.015 0.053 0.046 0.1 0.088 0.135l6.812 5.505zM28.34 15c0.155 0 0.277-0.133 0.263-0.288-0.296-2.9-1.583-5.609-3.645-7.67s-4.77-3.348-7.67-3.644c-0.037-0.004-0.073 0.001-0.108 0.012s-0.067 0.030-0.094 0.055c-0.027 0.025-0.049 0.055-0.063 0.089s-0.022 0.070-0.022 0.107v10.94c0 0.106 0.042 0.208 0.117 0.283s0.177 0.117 0.283 0.117h10.94z"></path>
</symbol>
<symbol id="icon-Marketing" viewBox="0 0 22 32">
<path fill="#fff" style="fill: var(--color1, #fff)" d="M11.2 0c-2.97 0-5.819 1.18-7.92 3.28s-3.28 4.949-3.28 7.92c0 3.808 1.904 7.152 4.8 9.184v3.616c0 0.424 0.169 0.831 0.469 1.131s0.707 0.469 1.131 0.469h9.6c0.424 0 0.831-0.169 1.131-0.469s0.469-0.707 0.469-1.131v-3.616c2.896-2.032 4.8-5.376 4.8-9.184 0-2.97-1.18-5.819-3.28-7.92s-4.949-3.28-7.92-3.28zM6.4 30.4c0 0.424 0.169 0.831 0.469 1.131s0.707 0.469 1.131 0.469h6.4c0.424 0 0.831-0.169 1.131-0.469s0.469-0.707 0.469-1.131v-1.6h-9.6v1.6z"></path>
</symbol>
<symbol id="icon-Arrow" viewBox="0 0 56 32">
<path fill="#fff" style="fill: var(--color1, #fff)" d="M49.68 1.808l4.24 4.244-23.108 23.116c-0.37 0.373-0.811 0.668-1.296 0.87s-1.005 0.306-1.53 0.306c-0.525 0-1.045-0.104-1.53-0.306s-0.925-0.498-1.296-0.87l-23.12-23.116 4.24-4.24 21.7 21.696 21.7-21.7z"></path>
</symbol>
<symbol id="icon-burger" viewBox="0 0 41 32">
<path fill="none" stroke="#fff" style="stroke: var(--color1, #fff)" stroke-linejoin="round" stroke-linecap="round" stroke-miterlimit="4" stroke-width="4.5714" d="M2.286 2.286h36.571M9.143 16h29.714M16 29.714h22.857"></path>
</symbol>
<symbol id="icon-Vector-8" viewBox="0 0 32 32">
<path fill="#fff" style="fill: var(--color1, #fff); stroke: var(--color1, #fff)" stroke="#fff" stroke-linejoin="round" stroke-linecap="round" stroke-miterlimit="4" stroke-width="3.2" d="M16 12.8c0.735 0 1.464-0.145 2.143-0.426s1.297-0.694 1.817-1.214c0.52-0.52 0.932-1.137 1.214-1.817s0.426-1.408 0.426-2.143-0.145-1.464-0.426-2.143c-0.281-0.679-0.694-1.297-1.214-1.817s-1.137-0.933-1.817-1.214c-0.68-0.281-1.408-0.426-2.143-0.426-1.485 0-2.91 0.59-3.96 1.64s-1.64 2.475-1.64 3.96c0 1.485 0.59 2.91 1.64 3.96s2.475 1.64 3.96 1.64zM1.6 29.44v0.96h28.8v-0.96c0-3.584 0-5.376-0.698-6.746-0.614-1.204-1.593-2.183-2.797-2.797-1.37-0.698-3.162-0.698-6.746-0.698h-8.32c-3.584 0-5.376 0-6.746 0.698-1.204 0.614-2.183 1.593-2.797 2.797-0.698 1.37-0.698 3.162-0.698 6.746z"></path>
</symbol>
<symbol id="icon-close" viewBox="0 0 32 32">
<path fill="#fff" style="fill: var(--color1, #fff)" d="M2.115 2.116c0.5-0.5 1.178-0.781 1.885-0.781s1.385 0.281 1.885 0.781l10.115 10.115 10.115-10.115c0.246-0.255 0.54-0.458 0.866-0.598s0.675-0.213 1.029-0.216c0.354-0.003 0.705 0.064 1.033 0.198s0.625 0.332 0.876 0.582c0.25 0.25 0.449 0.548 0.583 0.876s0.201 0.679 0.198 1.033c-0.003 0.354-0.077 0.704-0.217 1.029s-0.343 0.62-0.598 0.866l-10.115 10.115 10.115 10.115c0.486 0.503 0.755 1.177 0.749 1.876s-0.286 1.368-0.781 1.862c-0.494 0.494-1.163 0.775-1.862 0.781s-1.373-0.263-1.876-0.748l-10.115-10.115-10.115 10.115c-0.503 0.486-1.177 0.754-1.876 0.748s-1.368-0.286-1.862-0.781-0.775-1.163-0.781-1.862c-0.006-0.699 0.263-1.373 0.748-1.876l10.115-10.115-10.115-10.115c-0.5-0.5-0.781-1.178-0.781-1.885s0.281-1.385 0.781-1.885z"></path>
</symbol>
<symbol id="icon-logo" viewBox="0 0 32 32">
<path fill="#fff" style="fill: var(--color1, #fff)" d="M23.333 3.667c0.265 0 0.52 0.105 0.707 0.293s0.293 0.442 0.293 0.707v3h3c0.265 0 0.52 0.105 0.707 0.293s0.293 0.442 0.293 0.707-0.105 0.52-0.293 0.707c-0.187 0.188-0.442 0.293-0.707 0.293h-3v3c0 0.265-0.105 0.52-0.293 0.707s-0.442 0.293-0.707 0.293-0.52-0.105-0.707-0.293c-0.188-0.188-0.293-0.442-0.293-0.707v-3h-3c-0.265 0-0.52-0.105-0.707-0.293s-0.293-0.442-0.293-0.707 0.105-0.52 0.293-0.707c0.187-0.188 0.442-0.293 0.707-0.293h3v-3c0-0.265 0.105-0.52 0.293-0.707s0.442-0.293 0.707-0.293z"></path>
<path fill="#fff" style="fill: var(--color1, #fff)" d="M2.667 8.667c0-2.828 0-4.243 0.879-5.121s2.293-0.879 5.121-0.879c2.828 0 4.243 0 5.121 0.879s0.879 2.293 0.879 5.121c0 2.828 0 4.243-0.879 5.121s-2.293 0.879-5.121 0.879c-2.828 0-4.243 0-5.121-0.879s-0.879-2.293-0.879-5.121zM17.333 23.333c0-2.828 0-4.243 0.879-5.121s2.293-0.879 5.121-0.879c2.828 0 4.243 0 5.121 0.879s0.879 2.293 0.879 5.121c0 2.828 0 4.243-0.879 5.121s-2.293 0.879-5.121 0.879c-2.828 0-4.243 0-5.121-0.879s-0.879-2.293-0.879-5.121z"></path>
<path fill="#fff" style="fill: var(--color1, #fff)" opacity="0.5" d="M2.667 23.333c0-2.828 0-4.243 0.879-5.121s2.293-0.879 5.121-0.879c2.828 0 4.243 0 5.121 0.879s0.879 2.293 0.879 5.121c0 2.828 0 4.243-0.879 5.121s-2.293 0.879-5.121 0.879c-2.828 0-4.243 0-5.121-0.879s-0.879-2.293-0.879-5.121z"></path>
</symbol>
<symbol id="icon-star" viewBox="0 0 32 32">
<path fill="#fff" style="fill: var(--color1, #fff)" d="M16 3.465l-4 13.067-9.333 10 13.333-3.067 13.333 3.2-9.333-10-4-13.2z"></path>
</symbol>
<symbol id="icon-people" viewBox="0 0 32 32">
<path fill="#fff" style="fill: var(--color1, #fff); stroke: var(--color1, #fff)" opacity="0.85" stroke="#fff" stroke-linejoin="round" stroke-linecap="round" stroke-miterlimit="4" stroke-width="2.6667" d="M16 13.333c0.613 0 1.22-0.121 1.786-0.355s1.081-0.578 1.514-1.012c0.433-0.433 0.777-0.948 1.012-1.514s0.355-1.173 0.355-1.786c0-0.613-0.121-1.22-0.355-1.786s-0.578-1.081-1.012-1.514c-0.433-0.433-0.948-0.777-1.514-1.012s-1.173-0.355-1.786-0.355c-1.238 0-2.425 0.492-3.3 1.367s-1.367 2.062-1.367 3.3c0 1.238 0.492 2.425 1.367 3.3s2.062 1.367 3.3 1.367zM4 27.2v0.8h24v-0.8c0-2.987 0-4.48-0.581-5.621-0.511-1.003-1.327-1.819-2.331-2.331-1.141-0.581-2.635-0.581-5.621-0.581h-6.933c-2.987 0-4.48 0-5.621 0.581-1.003 0.511-1.819 1.327-2.331 2.331-0.581 1.141-0.581 2.635-0.581 5.621z"></path>
</symbol>
<symbol id="icon-right" viewBox="0 0 44 32">
<path fill="none" stroke="#fff" style="stroke: var(--color1, #fff)" stroke-linejoin="miter" stroke-linecap="butt" stroke-miterlimit="4" stroke-width="4" d="M0.084 15.916h40M27.084 29.916l14-14-14-14"></path>
</symbol>
<symbol id="icon-Vector-12" viewBox="0 0 36 32">
<path fill="#fff" style="fill: var(--color1, #fff)" d="M4.247 11.057l1.2 2.097c0.764 1.338 1.145 2.006 1.145 2.74s-0.381 1.402-1.145 2.737l-1.2 2.1c-3.416 5.98-5.124 8.968-3.794 10.453 1.333 1.482 4.49 0.102 10.798-2.657l17.318-7.577c4.953-2.166 7.431-3.251 7.431-5.055s-2.478-2.889-7.431-5.055l-17.318-7.577c-6.308-2.759-9.465-4.139-10.798-2.657s0.378 4.47 3.794 10.453z"></path>
</symbol>
<symbol id="icon-Vector-13" viewBox="0 0 30 32">
<path fill="#fff" style="fill: var(--color1, #fff)" d="M18.046 0.243c0.391 0.16 0.746 0.395 1.045 0.692s0.537 0.651 0.699 1.041c0.15 0.357 0.208 0.773 0.232 1.381 0.011 0.439 0.134 0.868 0.356 1.247s0.538 0.695 0.916 0.918c0.386 0.215 0.82 0.329 1.262 0.331s0.877-0.107 1.266-0.318c0.541-0.285 0.933-0.442 1.32-0.493 0.847-0.111 1.704 0.117 2.384 0.634 0.509 0.389 0.883 1.034 1.635 2.325s1.126 1.938 1.211 2.568c0.054 0.417 0.026 0.841-0.084 1.247s-0.298 0.787-0.555 1.12c-0.238 0.307-0.573 0.565-1.091 0.89-0.762 0.474-1.251 1.283-1.251 2.176s0.49 1.702 1.253 2.178c0.517 0.323 0.851 0.581 1.088 0.888 0.257 0.333 0.446 0.713 0.556 1.12s0.138 0.83 0.084 1.247c-0.085 0.632-0.459 1.277-1.211 2.568-0.75 1.291-1.126 1.938-1.635 2.325-0.678 0.517-1.536 0.746-2.384 0.634-0.387-0.051-0.779-0.208-1.32-0.493-0.388-0.211-0.823-0.32-1.265-0.318s-0.876 0.116-1.262 0.33c-0.779 0.446-1.242 1.272-1.274 2.165-0.024 0.608-0.082 1.024-0.232 1.381-0.162 0.39-0.4 0.743-0.699 1.041s-0.655 0.533-1.045 0.692c-0.592 0.243-1.344 0.243-2.846 0.243s-2.254 0-2.846-0.243c-0.79-0.325-1.418-0.949-1.744-1.733-0.15-0.357-0.208-0.773-0.232-1.381-0.034-0.893-0.494-1.717-1.272-2.165-0.386-0.215-0.82-0.329-1.262-0.331s-0.877 0.107-1.266 0.318c-0.541 0.285-0.933 0.442-1.32 0.493-0.848 0.11-1.706-0.117-2.384-0.634-0.509-0.389-0.883-1.034-1.635-2.325s-1.126-1.938-1.211-2.568c-0.054-0.417-0.026-0.841 0.084-1.247s0.298-0.787 0.555-1.12c0.238-0.307 0.573-0.565 1.091-0.89 0.762-0.474 1.251-1.283 1.251-2.176s-0.49-1.702-1.253-2.178c-0.517-0.323-0.851-0.581-1.088-0.888-0.522-0.674-0.752-1.525-0.64-2.366 0.085-0.632 0.459-1.277 1.211-2.568 0.75-1.291 1.126-1.938 1.635-2.325 0.68-0.516 1.537-0.744 2.384-0.634 0.387 0.051 0.779 0.208 1.32 0.493 0.388 0.211 0.823 0.32 1.265 0.318s0.876-0.116 1.262-0.33c0.378-0.223 0.694-0.539 0.917-0.918s0.346-0.808 0.357-1.247c0.024-0.606 0.082-1.024 0.232-1.381 0.162-0.39 0.4-0.743 0.699-1.041s0.654-0.533 1.045-0.692c0.594-0.243 1.344-0.243 2.846-0.243s2.254 0 2.846 0.243zM15.2 20.8c2.672 0 4.837-2.149 4.837-4.8s-2.166-4.8-4.837-4.8c-2.67 0-4.837 2.149-4.837 4.8s2.166 4.8 4.837 4.8z"></path>
</symbol>
</defs>
</svg>